<svg width="355" height="90" viewBox="0 0 355 90" fill="none" xmlns="http://www.w3.org/2000/svg">
<g filter="url(#filter0_i_3_616)">
<path d="M66.5502 37.8829C67.3499 36.4968 67.7764 34.8974 67.7764 33.1915C67.7764 27.9136 63.5115 23.702 58.287 23.702C53.0092 23.702 48.7443 27.9669 48.7443 33.1915C48.7443 38.4693 53.0092 42.7343 58.287 42.7343C59.5131 42.7343 60.6327 42.521 61.6989 42.0945C68.8426 50.8376 74.0138 60.7536 77.1591 71.256C75.9863 72.109 74.7601 72.9619 73.4807 73.7083C72.9476 73.9749 72.4678 74.2947 71.6681 74.7745C68.7893 76.5338 66.0704 77.8133 63.4582 79.0928C57.8605 81.7584 52.5294 84.3706 48.691 89.915C44.7993 84.3173 39.4681 81.7584 33.9238 79.0928C31.2582 77.8133 28.5393 76.5338 25.6072 74.7745L25.1274 74.4547C24.7542 74.2414 24.3811 74.0815 24.0612 73.8682C9.45393 65.0718 0.444336 49.185 0.444336 32.2852C0.444336 31.1123 0.497647 29.9395 0.550958 28.8199C1.244 19.0639 4.76254 12.0801 11.7996 7.44196C12.2794 9.94761 12.8658 12.4533 13.5589 14.9056C16.9175 26.7941 22.7817 37.9895 30.7251 47.6922C29.9254 49.0783 29.4989 50.6777 29.4989 52.3837C29.4989 57.6615 33.7638 61.9264 39.0416 61.9264C44.3195 61.9264 48.531 57.6615 48.531 52.3837C48.531 47.1058 44.2661 42.8942 39.0416 42.8942C37.8155 42.8942 36.6959 43.1074 35.6297 43.5339C26.247 32.0719 20.1695 18.5308 17.8238 4.4032C25.3407 1.41775 35.4698 0.0849609 48.691 0.0849609C81.424 0.0849609 95.3383 8.40157 96.7777 28.8732C96.831 29.9928 96.8843 31.1123 96.8843 32.2852C96.8843 45.3465 91.5532 57.7148 82.4903 66.6712C79.025 56.2754 73.5873 46.4661 66.5502 37.8829Z" fill="#1F76F9"/>
</g>
<path d="M82.4901 66.6712C80.8374 68.3238 79.0782 69.8165 77.159 71.2026C74.0136 60.7003 68.8424 50.7843 61.6988 42.0412C60.6325 42.4677 59.4597 42.6809 58.2868 42.6809C53.009 42.6809 48.7441 38.416 48.7441 33.1381C48.7441 27.8603 53.009 23.6487 58.2868 23.6487C63.5646 23.6487 67.7762 27.9136 67.7762 33.1381C67.7762 34.8441 67.3497 36.4435 66.5501 37.8296C73.5871 46.4661 79.0249 56.2754 82.4901 66.6712Z" fill="#E9F2FF"/>
<path d="M48.5312 52.3838C48.5312 57.6616 44.2663 61.9266 39.0418 61.9266C33.764 61.9266 29.4991 57.6616 29.4991 52.3838C29.4991 50.6778 29.9256 49.0785 30.7253 47.6924C22.7819 37.9896 16.9177 26.7942 13.5591 14.9057C12.866 12.4534 12.2796 9.94773 11.7998 7.44208C13.5591 6.26923 15.5849 5.25631 17.7707 4.40332C20.1697 18.5309 26.2471 32.0721 35.5766 43.534C36.6428 43.1076 37.8157 42.8943 38.9885 42.8943C44.2663 42.8943 48.5312 47.1592 48.5312 52.3838Z" fill="#E9F2FF"/>
<path d="M148.205 67.9829C158.652 67.9829 163.527 62.9684 163.527 55.0289C163.527 48.7608 159.349 44.4428 150.713 43.816V43.1892C158.513 42.632 161.577 38.4533 161.577 32.6727C161.577 25.36 156.424 21.3206 146.882 21.3206H118.885V67.9829H148.205ZM129.332 30.7227H145.559C149.459 30.7227 151.131 32.1156 151.131 35.3193C151.131 38.5229 149.529 39.8462 145.698 39.8462H129.332V30.7227ZM129.332 48.4822H146.952C151.2 48.4822 152.941 49.8055 152.941 53.4967C152.941 57.2575 151.2 58.5808 146.952 58.5808H129.332V48.4822Z" fill="#112440"/>
<path d="M177.133 29.5387V21.3206H166.686V29.5387H177.133ZM177.133 67.9829V33.0906H166.686V67.9829H177.133Z" fill="#112440"/>
<path d="M206.49 67.9829V58.5808H200.222C196.531 58.5808 195.207 57.6754 195.207 54.1931V41.7266H206.49V33.0906H195.207V26.335H184.76V33.0906H179.258V41.7266H184.76V55.3771C184.76 64.1524 189.705 67.9829 197.854 67.9829H206.49Z" fill="#112440"/>
<path d="M220.153 67.9829V47.7857C220.153 43.3981 221.824 41.2391 226.49 41.2391C230.739 41.2391 232.271 42.9106 232.271 46.7411V50.3626H242.718V44.5821C242.718 37.7568 239.514 32.3941 231.714 32.3941C224.68 32.3941 220.989 36.7122 220.013 42.3534H219.387V33.0906H209.706V67.9829H220.153Z" fill="#112440"/>
<path d="M264.4 68.6793C276.309 68.6793 284.318 61.5755 284.318 50.5716C284.318 39.4283 276.309 32.3941 264.4 32.3941C252.49 32.3941 244.481 39.4283 244.481 50.5716C244.481 61.5755 252.49 68.6793 264.4 68.6793ZM264.4 59.4165C257.296 59.4165 254.858 56.7003 254.858 50.5716C254.858 44.4428 257.296 41.5873 264.4 41.5873C271.434 41.5873 273.941 44.4428 273.941 50.5716C273.941 56.7003 271.434 59.4165 264.4 59.4165Z" fill="#112440"/>
<path d="M306.483 68.6793C318.393 68.6793 326.402 61.5755 326.402 50.5716C326.402 39.4283 318.393 32.3941 306.483 32.3941C294.574 32.3941 286.565 39.4283 286.565 50.5716C286.565 61.5755 294.574 68.6793 306.483 68.6793ZM306.483 59.4165C299.38 59.4165 296.942 56.7003 296.942 50.5716C296.942 44.4428 299.38 41.5873 306.483 41.5873C313.518 41.5873 316.025 44.4428 316.025 50.5716C316.025 56.7003 313.518 59.4165 306.483 59.4165Z" fill="#112440"/>
<path d="M354.557 67.9829V58.5808H348.289C344.597 58.5808 343.274 57.6754 343.274 54.1931V41.7266H354.557V33.0906H343.274V26.335H332.827V33.0906H327.325V41.7266H332.827V55.3771C332.827 64.1524 337.772 67.9829 345.921 67.9829H354.557Z" fill="#112440"/>
<rect x="166.479" y="21.4075" width="10.7713" height="8.50369" fill="#1F76F9"/>
<defs>
<filter id="filter0_i_3_616" x="0.444336" y="0.0849609" width="102.11" height="95.4992" filterUnits="userSpaceOnUse" color-interpolation-filters="sRGB">
<feFlood flood-opacity="0" result="BackgroundImageFix"/>
<feBlend mode="normal" in="SourceGraphic" in2="BackgroundImageFix" result="shape"/>
<feColorMatrix in="SourceAlpha" type="matrix" values="0 0 0 0 0 0 0 0 0 0 0 0 0 0 0 0 0 0 127 0" result="hardAlpha"/>
<feOffset dx="5.66913" dy="5.66913"/>
<feGaussianBlur stdDeviation="2.83456"/>
<feComposite in2="hardAlpha" operator="arithmetic" k2="-1" k3="1"/>
<feColorMatrix type="matrix" values="0 0 0 0 0.174292 0 0 0 0 0.308281 0 0 0 0 0.783333 0 0 0 1 0"/>
<feBlend mode="normal" in2="shape" result="effect1_innerShadow_3_616"/>
</filter>
</defs>
</svg>
